<?xml version="1.0" encoding="UTF-8" standalone="no"?>
<!-- Created with Inkscape (http://www.inkscape.org/) -->

<svg
   xmlns:dc="http://purl.org/dc/elements/1.1/"
   xmlns:cc="http://creativecommons.org/ns#"
   xmlns:rdf="http://www.w3.org/1999/02/22-rdf-syntax-ns#"
   xmlns:svg="http://www.w3.org/2000/svg"
   xmlns="http://www.w3.org/2000/svg"
   xmlns:sodipodi="http://sodipodi.sourceforge.net/DTD/sodipodi-0.dtd"
   xmlns:inkscape="http://www.inkscape.org/namespaces/inkscape"
   sodipodi:docname="hourglass.svg"
   xml:space="preserve"
   height="80"
   width="80"
   inkscape:version="0.48.4 r9939"
   version="1.1"
   id="svg3004"
   inkscape:export-filename="/home/isoron/Android/SimpleTimer/art/hourglass.png"
   inkscape:export-xdpi="1012.5"
   inkscape:export-ydpi="1012.5"><sodipodi:namedview
     pagecolor="#ffffff"
     bordercolor="#666666"
     borderopacity="1"
     objecttolerance="10"
     gridtolerance="10"
     guidetolerance="10"
     inkscape:pageopacity="0"
     inkscape:pageshadow="2"
     inkscape:window-width="1920"
     inkscape:window-height="1028"
     id="namedview3006"
     showgrid="false"
     inkscape:zoom="7.5130096"
     inkscape:cx="35.946094"
     inkscape:cy="40.075285"
     inkscape:window-x="0"
     inkscape:window-y="0"
     inkscape:window-maximized="1"
     inkscape:current-layer="g3012" /><metadata
     id="metadata3010"><rdf:RDF><cc:Work
         rdf:about=""><dc:format>image/svg+xml</dc:format><dc:type
           rdf:resource="http://purl.org/dc/dcmitype/StillImage" /><dc:title></dc:title></cc:Work></rdf:RDF></metadata><defs
     id="defs3008"><mask
       maskUnits="userSpaceOnUse"
       id="mask4159"><path
         inkscape:connector-curvature="0"
         id="path4161"
         style="fill:#33691e;fill-opacity:1;fill-rule:nonzero;stroke:none"
         d="m -14.964705,25.2 c 0,22.09125 -17.90875,40 -40,40 -22.09125,0 -40,-17.90875 -40,-40 0,-22.09125 17.90875,-40 40,-40 22.09125,0 40,17.90875 40,40" /></mask></defs><g
     transform="matrix(1.25,0,0,-1.25,0,80)"
     inkscape:label="ink_ext_XXXXXX"
     inkscape:groupmode="layer"
     id="g3012"><path
       d="M 64,32 C 64,14.327 49.673,0 32,0 14.327,0 0,14.327 0,32 0,49.673 14.327,64 32,64 49.673,64 64,49.673 64,32"
       style="fill:#7cb342;fill-opacity:1;fill-rule:nonzero;stroke:none"
       id="path3016"
       inkscape:connector-curvature="0" /><g
       id="g4026"
       transform="matrix(0.8,0,0,-0.8,75.971764,52.16)"
       style="fill:#000000;opacity:0.25"
       mask="url(#mask4159)"><g
         id="g4028"
         style="fill:#000000;fill-opacity:1;fill-rule:nonzero;stroke:none"><path
           id="path4030"
           d="m -72.28125,0.78125 c -1.380875,0 -2.5,1.119125 -2.5,2.5 l 70.7106781,70.710678 c 0,-1.380875 1.119125,-2.5 2.5,-2.5 z"
           inkscape:connector-curvature="0"
           style="fill:#000000" /><path
           id="path4032"
           d="m -74.78125,3.28125 c 0,0.7188116 0.303249,1.3666968 0.788813,1.8227203 L -3.2817587,75.814648 c -0.4855637,-0.456023 -0.7888132,-1.103908 -0.7888132,-1.82272 z"
           inkscape:connector-curvature="0"
           style="fill:#000000" /><path
           id="path4034"
           d="m -73.992437,5.1039703 c 0.44723,0.4200217 1.049124,0.6772797 1.711187,0.6772797 l 70.7106781,70.710678 c -0.6620633,0 -1.2639571,-0.257258 -1.7111868,-0.67728 z"
           inkscape:connector-curvature="0"
           style="fill:#000000" /><path
           id="path4036"
           d="m -72.28125,5.78125 2.5,0 70.71067812,70.710678 -2.50000002,0 z"
           inkscape:connector-curvature="0"
           style="fill:#000000" /><path
           id="path4038"
           d="m -69.78125,5.78125 0,5.59375 70.71067812,70.710678 0,-5.59375 z"
           inkscape:connector-curvature="0"
           style="fill:#000000" /><path
           id="path4040"
           d="m -69.78125,11.375 c 0,0 -0.130772,4.778869 3.250688,8.160328 L 4.1801159,90.246007 C 0.79865641,86.864547 0.92942812,82.085678 0.92942812,82.085678 z"
           inkscape:connector-curvature="0"
           style="fill:#000000" /><path
           id="path4042"
           d="m -66.530562,19.535328 c 0.05105,0.05105 0.102899,0.101781 0.155562,0.152172 L 4.3356781,90.398178 C 4.2830152,90.347787 4.2311653,90.297056 4.1801159,90.246007 z"
           inkscape:connector-curvature="0"
           style="fill:#000000" /><path
           id="path4044"
           d="m -66.375,19.6875 c 3.541,3.388125 5.21875,5 5.21875,5 L 9.5544281,95.398178 c 0,0 -1.67775,-1.611875 -5.21875,-5 z"
           inkscape:connector-curvature="0"
           style="fill:#000000" /><path
           id="path4046"
           d="m -61.15625,24.6875 c 0,0 0,0 0,0 L 9.5544281,95.398178 c 0,0 0,0 0,0 z"
           inkscape:connector-curvature="0"
           style="fill:#000000" /><path
           id="path4048"
           d="m -61.15625,24.6875 c 0,0 3.23e-4,3.18e-4 9.53e-4,9.47e-4 L 9.5553807,95.399125 c -6.296e-4,-6.29e-4 -9.526e-4,-9.47e-4 -9.526e-4,-9.47e-4 z"
           inkscape:connector-curvature="0"
           style="fill:#000000" /><path
           id="path4050"
           d="m -61.155297,24.688447 c 0.03684,0.03684 1.123454,1.141942 -9.53e-4,2.217803 L 9.5544281,97.616928 c 1.1244069,-1.075861 0.037791,-2.180964 9.526e-4,-2.217803 z"
           inkscape:connector-curvature="0"
           style="fill:#000000" /><path
           id="path4052"
           d="m -61.15625,26.90625 c -1.1435,1.09375 -4.875,4.65625 -4.875,4.65625 l 70.7106781,70.71068 c 0,0 3.7315,-3.562502 4.875,-4.656252 z"
           inkscape:connector-curvature="0"
           style="fill:#000000" /><path
           id="path4054"
           d="m -66.03125,31.5625 c 0,0 0,0 0,0 l 70.7106781,70.71068 c 0,0 0,0 0,0 z"
           inkscape:connector-curvature="0"
           style="fill:#000000" /><path
           id="path4056"
           d="m -66.03125,31.5625 c 0,0 -3.75,3.5415 -3.75,9.21875 l 70.71067812,70.71068 c 0,-5.67725 3.74999998,-9.21875 3.74999998,-9.21875 z"
           inkscape:connector-curvature="0"
           style="fill:#000000" /><path
           id="path4058"
           d="m -69.78125,40.78125 c 0,4.452353 2.65e-4,4.61316 0,5 l 70.71067812,70.71068 c 2.65e-4,-0.38684 0,-0.54765 0,-5 z"
           inkscape:connector-curvature="0"
           style="fill:#000000" /><path
           id="path4060"
           d="m -69.78125,45.78125 -2.5,0 70.7106781,70.71068 2.50000002,0 z"
           inkscape:connector-curvature="0"
           style="fill:#000000" /><path
           id="path4062"
           d="m -72.28125,45.78125 c -1.380875,0 -2.5,1.119125 -2.5,2.5 l 70.7106781,70.71068 c 0,-1.38088 1.119125,-2.5 2.5,-2.5 z"
           inkscape:connector-curvature="0"
           style="fill:#000000" /><path
           id="path4064"
           d="m -74.78125,48.28125 c 0,1.380875 1.119125,2.5 2.5,2.5 l 70.7106781,70.71068 c -1.380875,0 -2.5,-1.11913 -2.5,-2.5 z"
           inkscape:connector-curvature="0"
           style="fill:#000000" /><path
           id="path4066"
           d="m -72.28125,50.78125 35,0 70.710678,70.71068 -34.9999999,0 z"
           inkscape:connector-curvature="0"
           style="fill:#000000" /><path
           id="path4068"
           d="m -37.28125,50.78125 c 1.380875,0 2.5,-1.119125 2.5,-2.5 l 70.710678,70.71068 c 0,1.38087 -1.119125,2.5 -2.5,2.5 z"
           inkscape:connector-curvature="0"
           style="fill:#000000" /><path
           id="path4070"
           d="m -34.78125,48.28125 c 0,-1.380875 -1.119125,-2.5 -2.5,-2.5 l 70.710678,70.71068 c 1.380875,0 2.5,1.11912 2.5,2.5 z"
           inkscape:connector-curvature="0"
           style="fill:#000000" /><path
           id="path4072"
           d="m -37.28125,45.78125 -2.5,0 70.710678,70.71068 2.5,0 z"
           inkscape:connector-curvature="0"
           style="fill:#000000" /><path
           id="path4074"
           d="m -39.78125,45.78125 c -2.65e-4,-0.38684 0,-0.547647 0,-5 l 70.710678,70.71068 c 0,4.45235 -2.65e-4,4.61316 0,5 z"
           inkscape:connector-curvature="0"
           style="fill:#000000" /><path
           id="path4076"
           d="m -39.78125,40.78125 c 0,-5.288783 -3.254369,-8.724095 -3.69973,-9.169456 l 70.710678,70.710676 c 0.445361,0.44536 3.69973,3.88067 3.69973,9.16946 z"
           inkscape:connector-curvature="0"
           style="fill:#000000" /><path
           id="path4078"
           d="m -43.48098,31.611794 c -0.03271,-0.03271 -0.05027,-0.04929 -0.05027,-0.04929 l 70.710678,70.710676 c 0,0 0.01756,0.0166 0.05027,0.0493 z"
           inkscape:connector-curvature="0"
           style="fill:#000000" /><path
           id="path4080"
           d="m -43.53125,31.5625 c 0,0 -3.70025,-3.5625 -4.84375,-4.65625 l 70.710678,70.710678 c 1.1435,1.09375 4.84375,4.656252 4.84375,4.656252 z"
           inkscape:connector-curvature="0"
           style="fill:#000000" /><path
           id="path4082"
           d="m -48.375,26.90625 c -0.01231,-0.01178 -0.02436,-0.02357 -0.03615,-0.03536 l 70.710678,70.710679 c 0.01179,0.01179 0.02384,0.02357 0.03615,0.03535 z"
           inkscape:connector-curvature="0"
           style="fill:#000000" /><path
           id="path4084"
           d="M -48.41115,26.870894 C -49.49413,25.787915 -48.375,24.6875 -48.375,24.6875 l 70.710678,70.710678 c 0,0 -1.11913,1.100415 -0.03615,2.183395 z"
           inkscape:connector-curvature="0"
           style="fill:#000000" /><path
           id="path4086"
           d="m -48.375,24.6875 c 0,0 0,0 0,0 l 70.710678,70.710678 c 0,0 0,0 0,0 z"
           inkscape:connector-curvature="0"
           style="fill:#000000" /><path
           id="path4088"
           d="m -48.375,24.6875 c 0,0 1.6465,-1.611875 5.1875,-5 l 70.710678,70.710678 c -3.541,3.388125 -5.1875,5 -5.1875,5 z"
           inkscape:connector-curvature="0"
           style="fill:#000000" /><path
           id="path4090"
           d="m -43.1875,19.6875 c 3.541,-3.38825 3.40625,-8.3125 3.40625,-8.3125 l 70.710678,70.710678 c 0,0 0.13475,4.92425 -3.40625,8.3125 z"
           inkscape:connector-curvature="0"
           style="fill:#000000" /><path
           id="path4092"
           d="m -39.78125,11.375 0,-5.59375 70.710678,70.710678 0,5.59375 z"
           inkscape:connector-curvature="0"
           style="fill:#000000" /><path
           id="path4094"
           d="m -39.78125,5.78125 2.5,0 70.710678,70.710678 -2.5,0 z"
           inkscape:connector-curvature="0"
           style="fill:#000000" /><path
           id="path4096"
           d="m -37.28125,5.78125 c 1.380875,0 2.5,-1.119125 2.5,-2.5 l 70.710678,70.710678 c 0,1.380875 -1.119125,2.5 -2.5,2.5 z"
           inkscape:connector-curvature="0"
           style="fill:#000000" /><path
           id="path4098"
           d="m -34.78125,3.28125 c 0,-0.6904375 -0.279781,-1.3154375 -0.732172,-1.7678281 L 35.197256,72.2241 c 0.452391,0.452391 0.732172,1.077391 0.732172,1.767828 z"
           inkscape:connector-curvature="0"
           style="fill:#000000" /><path
           id="path4100"
           d="M -35.513422,1.5134219 C -35.965812,1.0610313 -36.590812,0.78125 -37.28125,0.78125 l 70.710678,70.710678 c 0.690438,0 1.315438,0.279781 1.767828,0.732172 z"
           inkscape:connector-curvature="0"
           style="fill:#000000" /><path
           id="path4102"
           d="m -37.28125,0.78125 -35,0 70.7106781,70.710678 34.9999999,0 z"
           inkscape:connector-curvature="0"
           style="fill:#000000" /></g><path
         id="path3020-3"
         d="m -72.28125,0.78125 c -1.380875,0 -2.5,1.119125 -2.5,2.5 0,1.380875 1.119125,2.5 2.5,2.5 l 2.5,0 0,5.59375 c 0,0 -0.13475,4.92425 3.40625,8.3125 3.541,3.388125 5.21875,5 5.21875,5 0,0 1.143625,1.1245 0,2.21875 -1.1435,1.09375 -4.875,4.65625 -4.875,4.65625 0,0 -3.75,3.5415 -3.75,9.21875 0,4.452353 2.65e-4,4.61316 0,5 l -2.5,0 c -1.380875,0 -2.5,1.119125 -2.5,2.5 0,1.380875 1.119125,2.5 2.5,2.5 l 35,0 c 1.380875,0 2.5,-1.119125 2.5,-2.5 0,-1.380875 -1.119125,-2.5 -2.5,-2.5 l -2.5,0 c -2.65e-4,-0.38684 0,-0.547647 0,-5 0,-5.67725 -3.75,-9.21875 -3.75,-9.21875 0,0 -3.70025,-3.5625 -4.84375,-4.65625 -1.143625,-1.09425 0,-2.21875 0,-2.21875 0,0 1.6465,-1.611875 5.1875,-5 3.541,-3.38825 3.40625,-8.3125 3.40625,-8.3125 l 0,-5.59375 2.5,0 c 1.380875,0 2.5,-1.119125 2.5,-2.5 0,-1.380875 -1.119125,-2.5 -2.5,-2.5 l -35,0 z"
         style="fill:#000000;fill-opacity:1;fill-rule:nonzero;stroke:none"
         inkscape:connector-curvature="0" /></g><g
       id="g3814"><path
         inkscape:connector-curvature="0"
         id="path3020"
         style="fill:#ffffff;fill-opacity:1;fill-rule:nonzero;stroke:none"
         d="m 41,27.3891 c 0,0 -2.9754,2.8468 -3.8902,3.7218 -0.9149,0.8754 0,1.7782 0,1.7782 0,0 1.3406,1.2824 4.1734,3.9929 C 44.116,39.5926 44,43.5418 44,43.5418 l 8e-4,5.125 -12.0008,1 -12.0008,-1 8e-4,-5.125 c 0,0 -0.116,-3.9492 2.7168,-6.6598 2.8328,-2.7105 4.1734,-3.9929 4.1734,-3.9929 0,0 0.9149,-0.9028 0,-1.7782 C 25.9754,30.2359 23,27.3891 23,27.3891 c 0,0 -3,-2.8473 -3,-7.3891 0,-4.5414 -8e-4,-5.0832 -8e-4,-5.0832 l 24.0016,0 c 0,0 -8e-4,0.5418 -8e-4,5.0832 0,4.5418 -3,7.3891 -3,7.3891" /><path
         inkscape:connector-curvature="0"
         id="path3030"
         style="fill:#ffffff;fill-opacity:1;fill-rule:nonzero;stroke:none"
         d="m 48,50 c 0,-1.1047 -0.8953,-2 -2,-2 l -28,0 c -1.1047,0 -2,0.8953 -2,2 0,1.1047 0.8953,2 2,2 l 28,0 c 1.1047,0 2,-0.8953 2,-2" /><path
         inkscape:connector-curvature="0"
         id="path3032"
         style="fill:#ffffff;fill-opacity:1;fill-rule:nonzero;stroke:none"
         d="m 48,14 c 0,-1.1047 -0.8953,-2 -2,-2 l -28,0 c -1.1047,0 -2,0.8953 -2,2 0,1.1047 0.8953,2 2,2 l 28,0 c 1.1047,0 2,-0.8953 2,-2" /></g><path
       d="m 44.0008,46 -4e-4,0 0,0.6668 4e-4,0 0,-0.6668 m -24.0012,0 -4e-4,0 0,0.6668 4e-4,-0.6668"
       style="fill:#79343c;fill-opacity:1;fill-rule:nonzero;stroke:none"
       id="path3026"
       inkscape:connector-curvature="0" /><g
       style="fill:#7cb342;fill-opacity:1"
       id="g3819"><path
         inkscape:connector-curvature="0"
         id="path3022"
         style="fill:#7cb342;fill-opacity:1;fill-rule:nonzero;stroke:none"
         d="m 31,21 0.0309,11 c 0.0164,2.0605 -0.9524,3.3621 -1.3305,3.7359 l -4.2184,4.036 c -1.4324,1.3707 -1.4843,3.6304 -1.484,3.6519 l 16.004,0 -4e-4,4e-4 c -0.0012,0 -0.0235,-2.2554 -1.484,-3.6523 L 34.3445,35.7797 C 33.9215,35.3621 32.9836,34.0605 32.9996,32 L 33,21 31,21" /><path
         inkscape:connector-curvature="0"
         id="path3034"
         style="fill:#7cb342;fill-opacity:1;fill-rule:nonzero;stroke:none"
         d="m 41,16 -18,0 9,8 9,-8" /></g></g></svg>